<svg width="20" height="6" viewBox="0 0 20 6" fill="none" xmlns="http://www.w3.org/2000/svg">
<path d="M5.1999 3.0001C5.1999 4.32558 4.12539 5.4001 2.7999 5.4001C1.47442 5.4001 0.399902 4.32558 0.399902 3.0001C0.399902 1.67461 1.47442 0.600098 2.7999 0.600098C4.12539 0.600098 5.1999 1.67461 5.1999 3.0001Z" fill="#5D5D5D"/>
<path d="M12.3999 3.0001C12.3999 4.32558 11.3254 5.4001 9.9999 5.4001C8.67442 5.4001 7.5999 4.32558 7.5999 3.0001C7.5999 1.67461 8.67442 0.600098 9.9999 0.600098C11.3254 0.600098 12.3999 1.67461 12.3999 3.0001Z" fill="#5D5D5D"/>
<path d="M19.5999 3.0001C19.5999 4.32558 18.5254 5.4001 17.1999 5.4001C15.8744 5.4001 14.7999 4.32558 14.7999 3.0001C14.7999 1.67461 15.8744 0.600098 17.1999 0.600098C18.5254 0.600098 19.5999 1.67461 19.5999 3.0001Z" fill="#5D5D5D"/>
</svg>
