<svg width="24" height="24" viewBox="0 0 24 24" fill="none" xmlns="http://www.w3.org/2000/svg">
<path fill-rule="evenodd" clip-rule="evenodd" d="M2.60548 2.96009C3.63378 1.75644 5.02826 1.08027 6.48228 1.08027C7.93629 1.08027 9.33078 1.75644 10.3591 2.96009L11.9657 4.83969L13.5724 2.96009C14.0782 2.34687 14.6833 1.85775 15.3523 1.52126C16.0213 1.18477 16.7408 1.00765 17.4689 1.00024C18.197 0.992834 18.9191 1.15528 19.5929 1.47811C20.2668 1.80094 20.8791 2.27768 21.3939 2.88051C21.9088 3.48335 22.316 4.20021 22.5917 4.98926C22.8674 5.77831 23.0061 6.62376 22.9998 7.47626C22.9935 8.32877 22.8422 9.17127 22.5548 9.95459C22.2674 10.7379 21.8497 11.4464 21.326 12.0386L11.9657 23L2.60548 12.0386C1.57749 10.8346 1 9.20185 1 7.49937C1 5.79689 1.57749 4.16411 2.60548 2.96009V2.96009Z" stroke="black" stroke-width="2" stroke-linejoin="round"/>
</svg>
