<svg width="205" height="66" viewBox="0 0 205 66" fill="none" xmlns="http://www.w3.org/2000/svg">
<path d="M11.9688 38.5625C10.4688 32.375 9.14583 27.1979 8 23.0312C6.85417 18.8438 5.9375 16.2396 5.25 15.2188L2.125 15C1.52083 13.4167 1.09375 11.4688 0.84375 9.15625C1.19792 8.01042 1.86458 7.02083 2.84375 6.1875C3.82292 5.33333 4.96875 4.6875 6.28125 4.25C7.59375 3.8125 8.91667 3.59375 10.25 3.59375C13.2917 3.59375 15.5625 4.98958 17.0625 7.78125C17.75 9.05208 18.3333 10.5833 18.8125 12.375C19.2917 14.1458 19.7396 16.25 20.1562 18.6875C20.8438 22.7917 21.3229 26.4792 21.5938 29.75C21.8646 33 22.0833 36.4583 22.25 40.125L22.375 42.9375H22.8438C23.3646 41.7917 23.9375 39.3229 24.5625 35.5312C25.1875 31.7396 25.7292 27.7292 26.1875 23.5C26.6458 19.25 26.8958 16.0938 26.9375 14.0312L23 13.4375C22.7083 12.3333 22.5208 11.3438 22.4375 10.4688C22.3542 9.59375 22.3125 8.53125 22.3125 7.28125C22.75 6.73958 23.4792 6.17708 24.5 5.59375C25.5208 5.01042 26.7083 4.52083 28.0625 4.125C29.4167 3.72917 30.7604 3.53125 32.0938 3.53125C33.8854 3.53125 35.5 3.83333 36.9375 4.4375C38.3958 5.02083 39.5521 5.89583 40.4062 7.0625C41.2812 8.22917 41.7292 9.65625 41.75 11.3438V16.1562C42.6875 19.8021 43.5 24.0833 44.1875 29C44.8958 33.8958 45.4167 38.5312 45.75 42.9062H46.0938C46.5938 41.7396 47.1562 39.2604 47.7812 35.4688C48.4271 31.6562 48.9896 27.6458 49.4688 23.4375C49.9479 19.2083 50.1979 16.0729 50.2188 14.0312L46.5312 13.4375C46.2396 12.3333 46.0521 11.3438 45.9688 10.4688C45.8854 9.59375 45.8438 8.53125 45.8438 7.28125C46.2604 6.73958 46.9896 6.17708 48.0312 5.59375C49.0729 5.01042 50.2708 4.52083 51.625 4.125C53 3.72917 54.3542 3.53125 55.6875 3.53125C58.4167 3.53125 60.4583 4.23958 61.8125 5.65625C63.1667 7.07292 63.8438 9.22917 63.8438 12.125C63.8438 14.875 63.3854 18.4167 62.4688 22.75C61.5521 27.0833 60.4062 31.1562 59.0312 34.9688C57.8438 38.3021 56.6771 41.1875 55.5312 43.625C54.3854 46.0417 52.9688 48.4167 51.2812 50.75C50.5938 51.4583 49.6875 51.9479 48.5625 52.2188C47.4583 52.4896 46.3125 52.625 45.125 52.625C41.0208 52.625 37.9896 51.8333 36.0312 50.25L36.875 43.8438L34.8438 33.3125C34.3646 30.5417 34.0521 28.3333 33.9062 26.6875L33.5 26.6562L33.4062 30.625C32.7188 34.7083 31.875 38.5 30.875 42C29.8958 45.4792 28.7708 48.3958 27.5 50.75C26.8958 51.4375 26.0625 51.9167 25 52.1875C23.9375 52.4792 22.8542 52.625 21.75 52.625C17.4792 52.625 14.4688 51.8438 12.7188 50.2812L13.4062 44.4062L11.9688 38.5625ZM68.0312 7.15625C68.0312 5.32292 68.625 3.83333 69.8125 2.6875C71.0208 1.54167 72.9375 0.96875 75.5625 0.96875C78.1875 0.96875 80.0938 1.54167 81.2812 2.6875C82.4896 3.83333 83.0938 5.32292 83.0938 7.15625C83.0938 8.19792 82.7292 9.15625 82 10.0312C81.2917 10.9062 80.3542 11.6042 79.1875 12.125C78.0208 12.625 76.8125 12.875 75.5625 12.875C74.2083 12.875 72.9479 12.5833 71.7812 12C70.6354 11.3958 69.7188 10.6458 69.0312 9.75C68.3646 8.85417 68.0312 7.98958 68.0312 7.15625ZM66.5 25.0312C66.2292 24.0104 66.0417 23.0833 65.9375 22.25C65.8333 21.3958 65.7812 20.5104 65.7812 19.5938L65.8125 18.7188C66.25 18.1562 66.9271 17.5938 67.8438 17.0312C68.7812 16.4479 69.8646 15.9583 71.0938 15.5625C72.3438 15.1667 73.6354 14.9688 74.9688 14.9688C77.8854 14.9688 79.9583 15.625 81.1875 16.9375C82.4167 18.25 83.0312 20.2917 83.0312 23.0625C83.0312 24.7292 82.7917 26.9062 82.3125 29.5938C81.8542 32.2812 81.2917 34.8958 80.625 37.4375C79.9792 39.9583 79.4167 41.7604 78.9375 42.8438L79 42.9062L83.625 41.2188C84.4583 41.9271 85.0833 42.7083 85.5 43.5625C85.9375 44.4167 86.2188 45.4062 86.3438 46.5312C86.3438 46.6771 85.8854 47.2812 84.9688 48.3438C84.0521 49.3854 82.8333 50.3646 81.3125 51.2812C79.8125 52.1771 78.0729 52.625 76.0938 52.625C74.0938 52.625 72.4688 52.0833 71.2188 51C69.9896 49.9167 69.375 48.0625 69.375 45.4375C69.375 42.375 69.4583 39.125 69.625 35.6875C69.7917 32.25 70.0521 28.9167 70.4062 25.6875L66.5 25.0312ZM91.9688 41.125C91.9688 37.7292 92.0104 35.1667 92.0938 33.4375C92.1771 31.6875 92.3958 29.125 92.75 25.75L89.125 25.2812C88.6875 23.9271 88.3958 22.7188 88.25 21.6562C88.125 20.5938 88.0625 19.2188 88.0625 17.5312C88.3958 17.2396 88.9479 16.8958 89.7188 16.5C90.5104 16.0833 91.4479 15.7292 92.5312 15.4375C93.6146 15.125 94.7083 14.9688 95.8125 14.9688C98.3333 14.9688 100.115 15.5104 101.156 16.5938C102.219 17.6771 102.75 19.3021 102.75 21.4688C102.75 22.6771 102.573 24.3125 102.219 26.375C101.635 29.6875 101.344 31.4271 101.344 31.5938C101.344 31.6979 101.417 31.8021 101.562 31.9062C101.708 31.9896 101.865 32.0312 102.031 32.0312C102.219 32.0312 102.344 31.9583 102.406 31.8125C103.24 28.5 104.073 25.7292 104.906 23.5C105.74 21.2708 107 19.2917 108.688 17.5625C110.375 15.8333 112.562 14.9688 115.25 14.9688C118.583 14.9688 120.979 15.9896 122.438 18.0312C123.896 20.0521 124.625 22.6042 124.625 25.6875C124.625 28.4375 124.302 31.0938 123.656 33.6562C123.01 36.1979 122.208 38.8542 121.25 41.625C121.292 41.5208 121.146 41.9271 120.812 42.8438L120.875 42.9062L125.438 41.0312C127.062 42.4271 128.01 44.2812 128.281 46.5938C128.281 46.7396 127.812 47.3333 126.875 48.375C125.958 49.4167 124.74 50.3854 123.219 51.2812C121.698 52.1771 119.948 52.625 117.969 52.625C115.99 52.625 114.375 52.0938 113.125 51.0312C111.875 49.9688 111.25 48.1562 111.25 45.5938C111.25 43.5521 111.333 40.8229 111.5 37.4062C111.667 33.9896 111.833 31.2396 112 29.1562C111.458 28.5729 110.792 28.2604 110 28.2188C109.271 29.1562 108.198 31.0312 106.781 33.8438C105.365 36.6562 104.365 38.7604 103.781 40.1562C103.74 40.4479 103.719 40.7292 103.719 41C103.719 42.0417 103.875 43.4479 104.188 45.2188C104.5 46.9688 104.885 48.6042 105.344 50.125C104.969 50.8333 104.198 51.4271 103.031 51.9062C101.865 52.3854 100.427 52.625 98.7188 52.625C97.1771 52.625 95.9375 52.5 95 52.25C94.0833 52 93.4375 51.7396 93.0625 51.4688C92.6875 51.1771 92.5 51 92.5 50.9375C92.4792 50.75 92.4271 50.2604 92.3438 49.4688C92.2604 48.6562 92.1771 47.5312 92.0938 46.0938C92.0104 44.6354 91.9688 42.9792 91.9688 41.125ZM130.812 33.9688C130.812 30.8021 131.25 27.7708 132.125 24.875C133.021 21.9792 134.417 19.6042 136.312 17.75C138.229 15.8958 140.635 14.9688 143.531 14.9688C146.781 14.9688 149.885 16 152.844 18.0625L153.344 17.75C153.281 15.3125 152.979 13.1042 152.438 11.125L146.094 10.7188C145.802 10.3438 145.573 9.79167 145.406 9.0625C145.24 8.3125 145.156 7.54167 145.156 6.75C145.156 5.6875 145.281 4.77083 145.531 4C146.781 3.10417 148.385 2.42708 150.344 1.96875C152.302 1.51042 154.26 1.28125 156.219 1.28125C158.385 1.28125 160.021 1.73958 161.125 2.65625C162.229 3.55208 162.969 4.91667 163.344 6.75C163.74 8.5625 163.938 11.0833 163.938 14.3125C163.938 18.5625 163.76 23.3854 163.406 28.7812C163.052 34.1771 162.594 38.5833 162.031 42L161.906 42.5312L165.531 40.9688C166.135 41.6146 166.667 42.4062 167.125 43.3438C167.604 44.2604 167.906 45.3229 168.031 46.5312C167.74 47.1562 167.104 47.9583 166.125 48.9375C165.146 49.8958 163.948 50.75 162.531 51.5C161.115 52.25 159.635 52.625 158.094 52.625C156.365 52.625 155.031 52.1146 154.094 51.0938C153.177 50.0521 152.719 48.7292 152.719 47.125C152.719 46.7083 152.823 45.8542 153.031 44.5625C153.26 43.2708 153.448 42.375 153.594 41.875L152.656 41.5938C151.594 45.3229 150.188 48.0938 148.438 49.9062C146.688 51.7188 144.521 52.625 141.938 52.625C139.167 52.625 136.948 51.7083 135.281 49.875C133.635 48.0208 132.479 45.6979 131.812 42.9062C131.146 40.1146 130.812 37.1354 130.812 33.9688ZM152.25 33.4062C152.375 32.6562 152.438 31.7812 152.438 30.7812C152.438 30.1354 152.406 29.5208 152.344 28.9375C152.302 28.3542 152.25 27.9375 152.188 27.6875C151.354 27.0833 150.406 26.6562 149.344 26.4062C148.302 26.1562 147.344 26.0312 146.469 26.0312C145.927 26.0312 145.344 26.0833 144.719 26.1875C144.302 26.6042 143.969 27.5104 143.719 28.9062C143.469 30.2812 143.344 31.8333 143.344 33.5625C143.344 35.4167 143.469 37.2188 143.719 38.9688C143.99 40.6979 144.365 42.0521 144.844 43.0312C145.177 43.0312 145.823 42.5208 146.781 41.5C147.76 40.4583 148.771 39.1875 149.812 37.6875C150.854 36.1667 151.667 34.7396 152.25 33.4062ZM181.25 48.0938C180.854 46.5521 180.115 44.3229 179.031 41.4062C177.948 38.4688 176.812 35.6458 175.625 32.9375C174.438 30.2292 173.5 28.3646 172.812 27.3438L169.938 26.8438C169.646 26.0312 169.417 25.1354 169.25 24.1562C169.104 23.1562 168.979 22 168.875 20.6875C169.229 19.7083 169.771 18.7812 170.5 17.9062C171.229 17.0312 172.104 16.3229 173.125 15.7812C174.167 15.2396 175.292 14.9688 176.5 14.9688C178.479 14.9688 180.115 15.5312 181.406 16.6562C182.719 17.7604 183.729 19.1562 184.438 20.8438C185.167 22.5104 185.802 24.4792 186.344 26.75C187.448 31.1458 188.156 36.5938 188.469 43.0938L189.156 42.9688C189.969 41.1562 190.656 38.5625 191.219 35.1875C191.802 31.8125 192.115 28.5729 192.156 25.4688L188.25 24.875C187.792 23.125 187.562 21.0729 187.562 18.7188C188.021 18.1562 188.677 17.5938 189.531 17.0312C190.406 16.4479 191.438 15.9583 192.625 15.5625C193.812 15.1667 195.073 14.9688 196.406 14.9688C201.781 14.9688 204.469 17.6667 204.469 23.0625C204.469 27.3125 203.698 31.4375 202.156 35.4375C200.635 39.4375 198.344 43.0521 195.281 46.2812C192.219 49.5104 188.49 52.0521 184.094 53.9062L184.344 54.9375C184.906 55 185.458 55.0312 186 55.0312C187.771 55.0312 189.906 54.7396 192.406 54.1562C193.823 55.7396 194.531 57.4688 194.531 59.3438C194.531 59.9062 194.469 60.4792 194.344 61.0625C193.094 62.2708 191.531 63.3125 189.656 64.1875C187.781 65.0625 185.719 65.5 183.469 65.5C180.198 65.5 177.552 64.7604 175.531 63.2812C173.51 61.8021 172.5 59.5521 172.5 56.5312C172.5 55.1771 172.906 53.9896 173.719 52.9688C174.552 51.9688 175.51 51.1562 176.594 50.5312C177.698 49.8854 179.25 49.0729 181.25 48.0938Z" fill="#01B04F"/>
</svg>
