<svg width="28" height="25" viewBox="0 0 28 25" fill="none" xmlns="http://www.w3.org/2000/svg">
<path d="M16.9917 5.45721L10.0723 2.42998C7.03782 1.10239 5.52058 0.438599 4.65763 0.44946C2.32016 0.478879 0.505915 2.49789 0.725682 4.82519C0.806816 5.68439 1.62847 7.12227 3.27177 9.99805L3.27177 9.99806L3.27178 9.99808C3.64553 10.6521 3.83241 10.9792 3.95127 11.3122C4.26158 12.1817 4.26158 13.1318 3.95127 14.0012C3.83241 14.3343 3.64553 14.6613 3.27177 15.3154L3.27176 15.3154C1.62847 18.1912 0.806816 19.6291 0.725682 20.4883C0.505915 22.8156 2.32016 24.8346 4.65763 24.864C5.52058 24.8749 7.03782 24.2111 10.0723 22.8835L16.9917 19.8562C23.9054 16.8315 27.3623 15.3191 27.4648 12.8207C27.4693 12.7114 27.4693 12.602 27.4648 12.4927C27.3623 9.99434 23.9054 8.48196 16.9917 5.45721Z" fill="#01B04F"/>
</svg>
